<svg width="190" height="31" viewBox="0 0 190 31" fill="none" xmlns="http://www.w3.org/2000/svg">
<g clip-path="url(#clip0_714_423)">
<path d="M53.9093 8.04249V13.5482H62.952V16.8395H53.9093V23.5446H63.5698V27.0204H49.5898V4.56665H63.5698V8.04249H53.9093Z" fill="white"/>
<path d="M68.1071 27.0188V4.56665H72.2733L80.7286 19.8524H80.7909V4.56665H84.9874V27.0188H80.7909L72.3339 11.7331H72.2717V27.0188H68.1055H68.1071Z" fill="white"/>
<path d="M107.451 15.4856C107.451 19.4228 106.479 22.38 104.535 24.359C102.591 26.3379 99.7876 27.3273 96.1258 27.3273C93.9246 27.3273 91.867 27.173 89.9531 26.866V4.72085C91.867 4.41383 93.9246 4.25952 96.1258 4.25952C99.7876 4.25952 102.591 5.2124 104.535 7.11973C106.479 9.02707 107.451 11.8157 107.451 15.4856ZM103.315 15.4856C103.315 12.8004 102.744 10.831 101.603 9.58066C100.461 8.33031 98.707 7.70514 96.3413 7.70514C95.5592 7.70514 94.8488 7.76718 94.2119 7.88967V23.6988C94.8488 23.8213 95.5592 23.8833 96.3413 23.8833C98.7485 23.8833 100.512 23.2375 101.634 21.9457C102.755 20.654 103.317 18.5017 103.317 15.4872L103.315 15.4856Z" fill="white"/>
<path d="M128.904 24.281C127.052 26.3108 124.541 27.3257 121.374 27.3257C118.207 27.3257 115.701 26.3108 113.859 24.281C112.017 22.2512 111.098 19.4212 111.098 15.7926C111.098 12.1641 112.019 9.33409 113.859 7.30426C115.7 5.27444 118.206 4.25952 121.374 4.25952C124.543 4.25952 127.052 5.27444 128.904 7.30426C130.755 9.33409 131.681 12.1641 131.681 15.7926C131.681 19.4212 130.755 22.2512 128.904 24.281ZM121.374 7.79581C117.465 7.79581 115.511 10.4619 115.511 15.7926C115.511 21.1233 117.465 23.7895 121.374 23.7895C125.284 23.7895 127.269 21.1249 127.269 15.7926C127.269 10.4604 125.304 7.79581 121.374 7.79581Z" fill="white"/>
<path d="M136.124 4.72241H159.282V8.15848H149.714V23.7353H160.144V27.1714H135.262V23.7353H145.692V8.15848H136.124V4.72241Z" fill="white"/>
<path d="M176.638 22.9623C175.489 25.6157 173.19 27.6965 169.743 29.2045L167.789 26.7706C167.444 27.3624 166.984 27.9923 166.41 28.6605L163.594 26.1407C164.666 24.8235 165.423 23.2773 165.864 21.502C166.304 19.7267 166.524 17.3214 166.524 14.2862V8.07268H188.648V15.088H180.374V16.262H189.999V19.0967H177.414C177.414 19.5167 177.385 19.908 177.328 20.2707H188.648C188.648 22.7905 188.514 24.6279 188.246 25.7828C187.978 26.9377 187.533 27.7108 186.91 28.1021C186.288 28.4934 185.287 28.6891 183.908 28.6891C182.624 28.6891 180.948 28.6223 178.879 28.4887L178.707 25.3676C180.239 25.5012 181.504 25.568 182.5 25.568C183.419 25.568 184.018 25.4057 184.296 25.0812C184.573 24.7567 184.722 24.0504 184.741 22.9623H176.638ZM164.714 6.61235V3.57715H189.999V6.61235H164.714ZM168.105 26.2266C169.944 25.463 171.332 24.4656 172.271 23.2343C173.21 22.0031 173.679 20.6239 173.679 19.0967H170.03C169.781 21.941 169.139 24.3177 168.105 26.2266ZM170.173 12.4823H184.913V10.7643H170.173V12.4823ZM170.173 16.262H176.437V15.088H170.173V16.262Z" fill="white"/>
<path d="M4.02278 10.7595H3.42738L3.54231 10.1072H4.13771L4.02278 10.7595ZM2.3547 20.2405H1.7593L1.64437 20.8927H2.23977L2.3547 20.2405ZM40.9871 20.8927H1.64596L0.00182527 30.2353C-0.0109447 30.3085 0.044924 30.3737 0.118351 30.3737H39.359C39.4164 30.3737 39.4659 30.3323 39.4755 30.2751L41.1021 21.0311C41.1148 20.9579 41.059 20.8927 40.9855 20.8927H40.9871ZM3.42738 10.7595L1.7593 20.2405H17.8926C17.9501 20.2405 17.9995 20.1991 18.0091 20.1418L19.6357 10.8978C19.6485 10.8247 19.5926 10.7595 19.5192 10.7595H3.42738ZM5.19283 0.724849L3.54231 10.1088H22.3509C22.4084 10.1088 22.4579 10.0675 22.4674 10.0102L24.094 0.764618C24.1068 0.691442 24.0509 0.626221 23.9775 0.626221H5.30935C5.25189 0.626221 5.20241 0.667581 5.19283 0.724849ZM38.8019 19.2637C38.746 19.3305 38.7827 19.4308 38.8657 19.453C39.0205 19.4928 39.177 19.5389 39.3318 19.566C39.4292 19.5835 39.4659 19.7012 39.3957 19.768C39.2392 19.9159 39.0748 20.0639 38.9072 20.2118C38.8849 20.2309 38.8577 20.2421 38.829 20.2421H21.8162C21.7284 20.2421 21.6709 20.1498 21.7092 20.0703L21.8896 19.7107C21.9311 19.628 21.8673 19.5326 21.7747 19.5389C21.6071 19.5517 21.4299 19.5755 21.2623 19.6057C21.1665 19.6232 21.0915 19.523 21.1362 19.4355C21.3086 19.0967 21.4905 18.7626 21.7252 18.4556C21.7795 18.384 21.7396 18.2806 21.6502 18.2663C21.4953 18.2409 21.3341 18.2011 21.1777 18.209C21.0771 18.2138 21.0133 18.1041 21.0723 18.0229C21.2878 17.7255 21.5767 17.4662 21.8066 17.1894C21.8625 17.1225 21.8257 17.0223 21.7427 17.0001C21.5879 16.9603 21.4331 16.9142 21.2766 16.8871C21.1793 16.8696 21.1426 16.7519 21.2128 16.6851C21.4857 16.4274 21.7842 16.1681 22.0859 15.9104C22.1514 15.8547 22.137 15.7497 22.0588 15.7131C21.8976 15.6368 21.7364 15.5906 21.5735 15.554C21.4746 15.5318 21.4474 15.4013 21.5304 15.3425C21.8513 15.1102 22.2152 14.9257 22.5329 14.7221C22.6079 14.6728 22.6031 14.5598 22.5233 14.5185C22.3733 14.4389 22.2232 14.3721 22.0748 14.3101C21.979 14.2703 21.9758 14.1367 22.07 14.0937C22.418 13.9362 22.7292 13.7278 23.082 13.6069C23.173 13.5751 23.1921 13.4574 23.1155 13.4001C22.9735 13.2936 22.8218 13.2061 22.6797 13.0979C22.6031 13.039 22.6223 12.9181 22.7149 12.8895C23.0948 12.7734 23.505 12.7097 23.9184 12.5873C23.9982 12.5634 24.0318 12.4664 23.9791 12.3995C23.8753 12.2675 23.7221 12.1721 23.588 12.0655C23.5082 12.0018 23.5433 11.873 23.6439 11.8571C24.0334 11.7935 24.4244 11.6964 24.8139 11.6996C24.9081 11.6996 24.964 11.5978 24.9145 11.5183C24.8315 11.3846 24.7277 11.2605 24.6144 11.1412C24.5426 11.0649 24.5952 10.9408 24.7006 10.9408H25.8627C25.9457 10.9408 26.0047 10.8581 25.9744 10.7817C25.9137 10.6274 25.8148 10.4747 25.7142 10.3347C25.6536 10.2504 25.7238 10.1327 25.8275 10.1486C26.2059 10.2043 26.5826 10.2838 26.9609 10.3665C27.0519 10.3872 27.1285 10.2997 27.0982 10.2122C27.0455 10.0547 26.9721 9.89725 26.9178 9.73977C26.8859 9.6475 26.9721 9.55842 27.0646 9.58705C27.4493 9.70636 27.8308 9.80658 28.1852 9.95452C28.2762 9.9927 28.3688 9.90998 28.3448 9.81453C28.3033 9.65227 28.2538 9.48206 28.2123 9.3198C28.1884 9.22754 28.281 9.14482 28.3704 9.17981C28.7535 9.33094 29.1078 9.53456 29.459 9.71749C29.5436 9.76204 29.6442 9.69204 29.633 9.59819C29.6138 9.43911 29.5803 9.27208 29.5739 9.11141C29.5692 9.0096 29.6857 8.94915 29.7671 9.01278C30.08 9.25935 30.4136 9.47888 30.7264 9.69522C30.7999 9.74613 30.9004 9.70159 30.9116 9.6125C30.9292 9.46615 30.9579 9.31344 30.9691 9.1655C30.977 9.06687 31.0984 9.02074 31.1686 9.08914C31.4416 9.35162 31.7496 9.5791 32.0146 9.84953C32.0769 9.91316 32.1854 9.89089 32.2141 9.80658C32.2636 9.65227 32.3019 9.49797 32.3355 9.34366C32.3562 9.24663 32.4807 9.2164 32.5446 9.29435C32.7856 9.58864 33.0011 9.8893 33.2134 10.2138C33.2661 10.2949 33.3874 10.2822 33.4241 10.1931L33.6109 9.72704C33.6476 9.63636 33.7705 9.62682 33.8232 9.70954C34.0291 10.0356 34.2079 10.4127 34.3818 10.7674C34.4218 10.8469 34.5303 10.8581 34.5846 10.7865C34.6819 10.6561 34.7809 10.5145 34.8527 10.3681C34.8974 10.2774 35.0267 10.279 35.0682 10.3681C35.2263 10.7117 35.3588 11.0617 35.4865 11.4387C35.5136 11.5198 35.6157 11.5453 35.6796 11.488C35.8057 11.3767 35.8951 11.2415 35.9797 11.1078C36.0356 11.0203 36.1696 11.0426 36.1952 11.1428C36.2878 11.5119 36.3947 11.8809 36.457 12.25C36.4713 12.3391 36.5783 12.3773 36.6485 12.32C36.7619 12.2277 36.8896 12.1466 36.9933 12.0448C37.0635 11.9764 37.1817 12.013 37.196 12.11C37.2519 12.4759 37.2599 12.8418 37.2615 13.2077C37.2615 13.2999 37.3636 13.3556 37.4435 13.3079C37.5759 13.2283 37.718 13.1567 37.8505 13.0756C37.9319 13.0263 38.0357 13.0852 38.0325 13.1806C38.0213 13.5592 37.9846 13.9394 37.9431 14.318C37.9335 14.4055 38.0181 14.4707 38.1011 14.4421C38.1682 14.4198 38.2432 14.4055 38.3326 14.3753C38.4092 14.3498 38.4746 14.3244 38.5337 14.2942C38.6215 14.2496 38.7236 14.3244 38.7061 14.4214C38.6343 14.7937 38.5129 15.1468 38.3852 15.5238C38.3565 15.6081 38.4283 15.6924 38.5161 15.6797C38.6997 15.6527 38.8593 15.5461 39.0381 15.4856C39.1371 15.4522 39.2265 15.554 39.1818 15.6479C39.102 15.8165 39.0317 15.9931 38.9886 16.1967C38.987 16.2063 38.9838 16.2158 38.979 16.2238L38.7189 16.7424C38.6774 16.8251 38.7412 16.9205 38.8338 16.9142C39.0014 16.9014 39.1786 16.8776 39.3462 16.8473C39.442 16.8298 39.517 16.9301 39.4723 17.0176C39.2999 17.3564 39.1179 17.6905 38.8833 17.9975C38.829 18.0691 38.8689 18.1725 38.9583 18.1868C39.1131 18.2122 39.2744 18.252 39.4308 18.244C39.5313 18.2393 39.5952 18.349 39.5361 18.4302C39.3206 18.7276 39.0317 18.9869 38.8019 19.2637ZM31.017 18.2265C31.017 17.8336 30.6977 17.5155 30.3034 17.5155C29.9092 17.5155 29.5899 17.8336 29.5899 18.2265C29.5899 18.6195 29.9092 18.9376 30.3034 18.9376C30.6977 18.9376 31.017 18.6195 31.017 18.2265Z" fill="white"/>
</g>
<defs>
<clipPath id="clip0_714_423">
<rect width="190" height="29.7475" fill="white" transform="translate(0 0.626221)"/>
</clipPath>
</defs>
</svg>
